<svg width="76" height="76" viewBox="0 0 76 76" fill="none" xmlns="http://www.w3.org/2000/svg">
<path d="M38.079 0C32.147 0.000131988 19.2945 32.7792 38.0791 32.7792L38.079 0Z" fill="#0C1C25"/>
<path d="M38.079 0C44.011 0.000131988 56.8636 32.7792 38.0791 32.7792L38.079 0Z" fill="#0C1C25"/>
<path d="M69.423 68.3587C73.3922 63.8351 58.2528 32.1009 45.6835 46.4251L69.423 68.3587Z" fill="#0C1C25"/>
<path d="M69.423 68.3587C65.4537 72.8821 33.1142 60.7494 45.6835 46.4251L69.423 68.3587Z" fill="#0C1C25"/>
<path d="M6.57697 68.5047C2.60779 63.9811 17.7472 32.2469 30.3165 46.5712L6.57697 68.5047Z" fill="#0C1C25"/>
<path d="M6.57697 68.5047C10.5463 73.0281 42.8858 60.8955 30.3165 46.5712L6.57697 68.5047Z" fill="#0C1C25"/>
</svg>
